# xmcd
#
# Track frame offsets:
#	150
#	48142
#	90345
#	146595
#	193725
#	223382
#	269937
#
# Disc length: 4308 seconds
#
# Revision: 1
# Processed by: cddbd v1.5.2PL0 Copyright (c) Steve Scherf et al.
# Submitted via: audiograbber 1.83.01
#
DISCID=6d10d207
DTITLE=Kempowski, Walter - Schöne Aussicht - CD 13
DYEAR=1900
DGENRE=
TTITLE0=Musik, Kapitel 13, Abschnitt 1
TTITLE1=Kapitel 13, Abschnitt 2
TTITLE2=Kapitel 13, Abschnitt 3
TTITLE3=Kapitel 13, Abschnitt 4
TTITLE4=Kapitel 13, Abschnitt 5
TTITLE5=Musik, Kapitel 14, Abschnitt 1
TTITLE6=Kapitel 14, Abschnitt 2
EXTD=
EXTT0=
EXTT1=
EXTT2=
EXTT3=
EXTT4=
EXTT5=
EXTT6=
PLAYORDER=
